%TF.GenerationSoftware,KiCad,Pcbnew,(5.1.9)-1*%
%TF.CreationDate,2021-03-24T16:34:38+05:30*%
%TF.ProjectId,pir alarm system,70697220-616c-4617-926d-207379737465,1.0*%
%TF.SameCoordinates,Original*%
%TF.FileFunction,Legend,Top*%
%TF.FilePolarity,Positive*%
%FSLAX46Y46*%
G04 Gerber Fmt 4.6, Leading zero omitted, Abs format (unit mm)*
G04 Created by KiCad (PCBNEW (5.1.9)-1) date 2021-03-24 16:34:38*
%MOMM*%
%LPD*%
G01*
G04 APERTURE LIST*
%ADD10C,0.120000*%
%ADD11C,0.050800*%
%ADD12C,0.127000*%
%ADD13C,0.150000*%
%ADD14C,0.015000*%
G04 APERTURE END LIST*
D10*
%TO.C,VCC1*%
X143220000Y-127000000D02*
G75*
G03*
X143220000Y-127000000I-2250000J0D01*
G01*
%TO.C,U1*%
X162560000Y-120630000D02*
X159110000Y-120630000D01*
X162560000Y-120630000D02*
X164510000Y-120630000D01*
X162560000Y-125750000D02*
X160610000Y-125750000D01*
X162560000Y-125750000D02*
X164510000Y-125750000D01*
%TO.C,SW1*%
X140335000Y-114976667D02*
X141605000Y-114976667D01*
X141535000Y-116330000D02*
X141535000Y-114976667D01*
X141415000Y-116330000D02*
X141415000Y-114976667D01*
X141295000Y-116330000D02*
X141295000Y-114976667D01*
X141175000Y-116330000D02*
X141175000Y-114976667D01*
X141055000Y-116330000D02*
X141055000Y-114976667D01*
X140935000Y-116330000D02*
X140935000Y-114976667D01*
X140815000Y-116330000D02*
X140815000Y-114976667D01*
X140695000Y-116330000D02*
X140695000Y-114976667D01*
X140575000Y-116330000D02*
X140575000Y-114976667D01*
X140455000Y-116330000D02*
X140455000Y-114976667D01*
X140335000Y-112270000D02*
X140335000Y-116330000D01*
X141605000Y-112270000D02*
X140335000Y-112270000D01*
X141605000Y-116330000D02*
X141605000Y-112270000D01*
X140335000Y-116330000D02*
X141605000Y-116330000D01*
X138310000Y-119490000D02*
X139693000Y-119490000D01*
X138310000Y-119490000D02*
X138310000Y-118106000D01*
X138550000Y-109350000D02*
X143390000Y-109350000D01*
X138550000Y-119250000D02*
X143390000Y-119250000D01*
X143390000Y-119250000D02*
X143390000Y-109350000D01*
X138550000Y-119250000D02*
X138550000Y-109350000D01*
%TO.C,R4*%
X160930000Y-131537064D02*
X160930000Y-130082936D01*
X159110000Y-131537064D02*
X159110000Y-130082936D01*
%TO.C,R3*%
X177225001Y-118192065D02*
X177225001Y-116737937D01*
X175405001Y-118192065D02*
X175405001Y-116737937D01*
%TO.C,R2*%
X157840000Y-114842936D02*
X157840000Y-116297064D01*
X159660000Y-114842936D02*
X159660000Y-116297064D01*
%TO.C,R1*%
X148230000Y-122647064D02*
X148230000Y-121192936D01*
X146410000Y-122647064D02*
X146410000Y-121192936D01*
%TO.C,Q1*%
X150550000Y-122660000D02*
X150550000Y-126260000D01*
X150561522Y-126298478D02*
G75*
G03*
X155000000Y-124460000I1838478J1838478D01*
G01*
X150561522Y-122621522D02*
G75*
G02*
X155000000Y-124460000I1838478J-1838478D01*
G01*
D11*
%TO.C,H1*%
X154990800Y-114300000D02*
G75*
G03*
X154990800Y-114300000I-3860800J0D01*
G01*
D12*
X155702000Y-114300000D02*
G75*
G03*
X155702000Y-114300000I-4572000J0D01*
G01*
X154635200Y-110236000D02*
X155168600Y-110769400D01*
X154101800Y-110769400D02*
X154635200Y-110236000D01*
X155168600Y-110769400D02*
X154635200Y-111302800D01*
D10*
%TO.C,GND1*%
X143220000Y-134620000D02*
G75*
G03*
X143220000Y-134620000I-2250000J0D01*
G01*
%TO.C,C2*%
X165398750Y-117073750D02*
X166186250Y-117073750D01*
X165792500Y-117467500D02*
X165792500Y-116680000D01*
X169985563Y-116440000D02*
X171050000Y-115375563D01*
X165294437Y-116440000D02*
X164230000Y-115375563D01*
X165294437Y-116440000D02*
X166580000Y-116440000D01*
X169985563Y-116440000D02*
X168700000Y-116440000D01*
X171050000Y-115375563D02*
X171050000Y-109620000D01*
X164230000Y-115375563D02*
X164230000Y-109620000D01*
X164230000Y-109620000D02*
X166580000Y-109620000D01*
X171050000Y-109620000D02*
X168700000Y-109620000D01*
%TO.C,C1*%
X154442500Y-135347500D02*
X154442500Y-134722500D01*
X154755000Y-135035000D02*
X154130000Y-135035000D01*
X153890000Y-131654437D02*
X152825563Y-130590000D01*
X153890000Y-135045563D02*
X152825563Y-136110000D01*
X153890000Y-135045563D02*
X153890000Y-134410000D01*
X153890000Y-131654437D02*
X153890000Y-132290000D01*
X152825563Y-130590000D02*
X148370000Y-130590000D01*
X152825563Y-136110000D02*
X148370000Y-136110000D01*
X148370000Y-136110000D02*
X148370000Y-134410000D01*
X148370000Y-130590000D02*
X148370000Y-132290000D01*
%TO.C,BZ1*%
X180090000Y-129550000D02*
G75*
G03*
X180090000Y-129550000I-6100000J0D01*
G01*
%TO.C,VCC1*%
D13*
X139160476Y-123554380D02*
X139493809Y-124554380D01*
X139827142Y-123554380D01*
X140731904Y-124459142D02*
X140684285Y-124506761D01*
X140541428Y-124554380D01*
X140446190Y-124554380D01*
X140303333Y-124506761D01*
X140208095Y-124411523D01*
X140160476Y-124316285D01*
X140112857Y-124125809D01*
X140112857Y-123982952D01*
X140160476Y-123792476D01*
X140208095Y-123697238D01*
X140303333Y-123602000D01*
X140446190Y-123554380D01*
X140541428Y-123554380D01*
X140684285Y-123602000D01*
X140731904Y-123649619D01*
X141731904Y-124459142D02*
X141684285Y-124506761D01*
X141541428Y-124554380D01*
X141446190Y-124554380D01*
X141303333Y-124506761D01*
X141208095Y-124411523D01*
X141160476Y-124316285D01*
X141112857Y-124125809D01*
X141112857Y-123982952D01*
X141160476Y-123792476D01*
X141208095Y-123697238D01*
X141303333Y-123602000D01*
X141446190Y-123554380D01*
X141541428Y-123554380D01*
X141684285Y-123602000D01*
X141731904Y-123649619D01*
X142684285Y-124554380D02*
X142112857Y-124554380D01*
X142398571Y-124554380D02*
X142398571Y-123554380D01*
X142303333Y-123697238D01*
X142208095Y-123792476D01*
X142112857Y-123840095D01*
%TO.C,U1*%
X161798095Y-119242380D02*
X161798095Y-120051904D01*
X161845714Y-120147142D01*
X161893333Y-120194761D01*
X161988571Y-120242380D01*
X162179047Y-120242380D01*
X162274285Y-120194761D01*
X162321904Y-120147142D01*
X162369523Y-120051904D01*
X162369523Y-119242380D01*
X163369523Y-120242380D02*
X162798095Y-120242380D01*
X163083809Y-120242380D02*
X163083809Y-119242380D01*
X162988571Y-119385238D01*
X162893333Y-119480476D01*
X162798095Y-119528095D01*
%TO.C,SW1*%
X137954761Y-115633333D02*
X138002380Y-115490476D01*
X138002380Y-115252380D01*
X137954761Y-115157142D01*
X137907142Y-115109523D01*
X137811904Y-115061904D01*
X137716666Y-115061904D01*
X137621428Y-115109523D01*
X137573809Y-115157142D01*
X137526190Y-115252380D01*
X137478571Y-115442857D01*
X137430952Y-115538095D01*
X137383333Y-115585714D01*
X137288095Y-115633333D01*
X137192857Y-115633333D01*
X137097619Y-115585714D01*
X137050000Y-115538095D01*
X137002380Y-115442857D01*
X137002380Y-115204761D01*
X137050000Y-115061904D01*
X137002380Y-114728571D02*
X138002380Y-114490476D01*
X137288095Y-114300000D01*
X138002380Y-114109523D01*
X137002380Y-113871428D01*
X138002380Y-112966666D02*
X138002380Y-113538095D01*
X138002380Y-113252380D02*
X137002380Y-113252380D01*
X137145238Y-113347619D01*
X137240476Y-113442857D01*
X137288095Y-113538095D01*
%TO.C,R4*%
X158652380Y-130976666D02*
X158176190Y-131310000D01*
X158652380Y-131548095D02*
X157652380Y-131548095D01*
X157652380Y-131167142D01*
X157700000Y-131071904D01*
X157747619Y-131024285D01*
X157842857Y-130976666D01*
X157985714Y-130976666D01*
X158080952Y-131024285D01*
X158128571Y-131071904D01*
X158176190Y-131167142D01*
X158176190Y-131548095D01*
X157985714Y-130119523D02*
X158652380Y-130119523D01*
X157604761Y-130357619D02*
X158319047Y-130595714D01*
X158319047Y-129976666D01*
%TO.C,R3*%
X174947381Y-117631667D02*
X174471191Y-117965001D01*
X174947381Y-118203096D02*
X173947381Y-118203096D01*
X173947381Y-117822143D01*
X173995001Y-117726905D01*
X174042620Y-117679286D01*
X174137858Y-117631667D01*
X174280715Y-117631667D01*
X174375953Y-117679286D01*
X174423572Y-117726905D01*
X174471191Y-117822143D01*
X174471191Y-118203096D01*
X173947381Y-117298334D02*
X173947381Y-116679286D01*
X174328334Y-117012620D01*
X174328334Y-116869762D01*
X174375953Y-116774524D01*
X174423572Y-116726905D01*
X174518810Y-116679286D01*
X174756905Y-116679286D01*
X174852143Y-116726905D01*
X174899762Y-116774524D01*
X174947381Y-116869762D01*
X174947381Y-117155477D01*
X174899762Y-117250715D01*
X174852143Y-117298334D01*
%TO.C,R2*%
X161022380Y-115736666D02*
X160546190Y-116070000D01*
X161022380Y-116308095D02*
X160022380Y-116308095D01*
X160022380Y-115927142D01*
X160070000Y-115831904D01*
X160117619Y-115784285D01*
X160212857Y-115736666D01*
X160355714Y-115736666D01*
X160450952Y-115784285D01*
X160498571Y-115831904D01*
X160546190Y-115927142D01*
X160546190Y-116308095D01*
X160117619Y-115355714D02*
X160070000Y-115308095D01*
X160022380Y-115212857D01*
X160022380Y-114974761D01*
X160070000Y-114879523D01*
X160117619Y-114831904D01*
X160212857Y-114784285D01*
X160308095Y-114784285D01*
X160450952Y-114831904D01*
X161022380Y-115403333D01*
X161022380Y-114784285D01*
%TO.C,R1*%
X145952380Y-122086666D02*
X145476190Y-122420000D01*
X145952380Y-122658095D02*
X144952380Y-122658095D01*
X144952380Y-122277142D01*
X145000000Y-122181904D01*
X145047619Y-122134285D01*
X145142857Y-122086666D01*
X145285714Y-122086666D01*
X145380952Y-122134285D01*
X145428571Y-122181904D01*
X145476190Y-122277142D01*
X145476190Y-122658095D01*
X145952380Y-121134285D02*
X145952380Y-121705714D01*
X145952380Y-121420000D02*
X144952380Y-121420000D01*
X145095238Y-121515238D01*
X145190476Y-121610476D01*
X145238095Y-121705714D01*
%TO.C,Q1*%
X156507619Y-124555238D02*
X156460000Y-124650476D01*
X156364761Y-124745714D01*
X156221904Y-124888571D01*
X156174285Y-124983809D01*
X156174285Y-125079047D01*
X156412380Y-125031428D02*
X156364761Y-125126666D01*
X156269523Y-125221904D01*
X156079047Y-125269523D01*
X155745714Y-125269523D01*
X155555238Y-125221904D01*
X155460000Y-125126666D01*
X155412380Y-125031428D01*
X155412380Y-124840952D01*
X155460000Y-124745714D01*
X155555238Y-124650476D01*
X155745714Y-124602857D01*
X156079047Y-124602857D01*
X156269523Y-124650476D01*
X156364761Y-124745714D01*
X156412380Y-124840952D01*
X156412380Y-125031428D01*
X156412380Y-123650476D02*
X156412380Y-124221904D01*
X156412380Y-123936190D02*
X155412380Y-123936190D01*
X155555238Y-124031428D01*
X155650476Y-124126666D01*
X155698095Y-124221904D01*
%TO.C,H1*%
D14*
X149731226Y-120475568D02*
X149731226Y-119474237D01*
X149731226Y-119951061D02*
X150303415Y-119951061D01*
X150303415Y-120475568D02*
X150303415Y-119474237D01*
X151304746Y-120475568D02*
X150732557Y-120475568D01*
X151018651Y-120475568D02*
X151018651Y-119474237D01*
X150923286Y-119617284D01*
X150827922Y-119712649D01*
X150732557Y-119760331D01*
%TO.C,GND1*%
D13*
X139731904Y-131222000D02*
X139636666Y-131174380D01*
X139493809Y-131174380D01*
X139350952Y-131222000D01*
X139255714Y-131317238D01*
X139208095Y-131412476D01*
X139160476Y-131602952D01*
X139160476Y-131745809D01*
X139208095Y-131936285D01*
X139255714Y-132031523D01*
X139350952Y-132126761D01*
X139493809Y-132174380D01*
X139589047Y-132174380D01*
X139731904Y-132126761D01*
X139779523Y-132079142D01*
X139779523Y-131745809D01*
X139589047Y-131745809D01*
X140208095Y-132174380D02*
X140208095Y-131174380D01*
X140779523Y-132174380D01*
X140779523Y-131174380D01*
X141255714Y-132174380D02*
X141255714Y-131174380D01*
X141493809Y-131174380D01*
X141636666Y-131222000D01*
X141731904Y-131317238D01*
X141779523Y-131412476D01*
X141827142Y-131602952D01*
X141827142Y-131745809D01*
X141779523Y-131936285D01*
X141731904Y-132031523D01*
X141636666Y-132126761D01*
X141493809Y-132174380D01*
X141255714Y-132174380D01*
X142779523Y-132174380D02*
X142208095Y-132174380D01*
X142493809Y-132174380D02*
X142493809Y-131174380D01*
X142398571Y-131317238D01*
X142303333Y-131412476D01*
X142208095Y-131460095D01*
%TO.C,C2*%
X163647142Y-113196666D02*
X163694761Y-113244285D01*
X163742380Y-113387142D01*
X163742380Y-113482380D01*
X163694761Y-113625238D01*
X163599523Y-113720476D01*
X163504285Y-113768095D01*
X163313809Y-113815714D01*
X163170952Y-113815714D01*
X162980476Y-113768095D01*
X162885238Y-113720476D01*
X162790000Y-113625238D01*
X162742380Y-113482380D01*
X162742380Y-113387142D01*
X162790000Y-113244285D01*
X162837619Y-113196666D01*
X162837619Y-112815714D02*
X162790000Y-112768095D01*
X162742380Y-112672857D01*
X162742380Y-112434761D01*
X162790000Y-112339523D01*
X162837619Y-112291904D01*
X162932857Y-112244285D01*
X163028095Y-112244285D01*
X163170952Y-112291904D01*
X163742380Y-112863333D01*
X163742380Y-112244285D01*
%TO.C,C1*%
X150963333Y-137407142D02*
X150915714Y-137454761D01*
X150772857Y-137502380D01*
X150677619Y-137502380D01*
X150534761Y-137454761D01*
X150439523Y-137359523D01*
X150391904Y-137264285D01*
X150344285Y-137073809D01*
X150344285Y-136930952D01*
X150391904Y-136740476D01*
X150439523Y-136645238D01*
X150534761Y-136550000D01*
X150677619Y-136502380D01*
X150772857Y-136502380D01*
X150915714Y-136550000D01*
X150963333Y-136597619D01*
X151915714Y-137502380D02*
X151344285Y-137502380D01*
X151630000Y-137502380D02*
X151630000Y-136502380D01*
X151534761Y-136645238D01*
X151439523Y-136740476D01*
X151344285Y-136788095D01*
%TO.C,BZ1*%
X166718571Y-130430952D02*
X166766190Y-130288095D01*
X166813809Y-130240476D01*
X166909047Y-130192857D01*
X167051904Y-130192857D01*
X167147142Y-130240476D01*
X167194761Y-130288095D01*
X167242380Y-130383333D01*
X167242380Y-130764285D01*
X166242380Y-130764285D01*
X166242380Y-130430952D01*
X166290000Y-130335714D01*
X166337619Y-130288095D01*
X166432857Y-130240476D01*
X166528095Y-130240476D01*
X166623333Y-130288095D01*
X166670952Y-130335714D01*
X166718571Y-130430952D01*
X166718571Y-130764285D01*
X166242380Y-129859523D02*
X166242380Y-129192857D01*
X167242380Y-129859523D01*
X167242380Y-129192857D01*
X167242380Y-128288095D02*
X167242380Y-128859523D01*
X167242380Y-128573809D02*
X166242380Y-128573809D01*
X166385238Y-128669047D01*
X166480476Y-128764285D01*
X166528095Y-128859523D01*
X171521428Y-133740952D02*
X171521428Y-132979047D01*
X171902380Y-133360000D02*
X171140476Y-133360000D01*
%TD*%
M02*
