%TF.GenerationSoftware,KiCad,Pcbnew,(5.1.9)-1*%
%TF.CreationDate,2021-03-24T16:34:38+05:30*%
%TF.ProjectId,pir alarm system,70697220-616c-4617-926d-207379737465,1.0*%
%TF.SameCoordinates,Original*%
%TF.FileFunction,Copper,L1,Top*%
%TF.FilePolarity,Positive*%
%FSLAX46Y46*%
G04 Gerber Fmt 4.6, Leading zero omitted, Abs format (unit mm)*
G04 Created by KiCad (PCBNEW (5.1.9)-1) date 2021-03-24 16:34:38*
%MOMM*%
%LPD*%
G01*
G04 APERTURE LIST*
%TA.AperFunction,NonConductor*%
%ADD10C,0.250000*%
%TD*%
%TA.AperFunction,SMDPad,CuDef*%
%ADD11C,4.000000*%
%TD*%
%TA.AperFunction,ComponentPad*%
%ADD12O,1.600000X1.600000*%
%TD*%
%TA.AperFunction,ComponentPad*%
%ADD13R,1.600000X1.600000*%
%TD*%
%TA.AperFunction,ComponentPad*%
%ADD14R,1.500000X1.050000*%
%TD*%
%TA.AperFunction,ComponentPad*%
%ADD15O,1.500000X1.050000*%
%TD*%
%TA.AperFunction,ComponentPad*%
%ADD16C,1.320800*%
%TD*%
%TA.AperFunction,ComponentPad*%
%ADD17C,2.000000*%
%TD*%
%TA.AperFunction,ComponentPad*%
%ADD18R,2.000000X2.000000*%
%TD*%
%TA.AperFunction,Conductor*%
%ADD19C,0.250000*%
%TD*%
G04 APERTURE END LIST*
D10*
X152655714Y-138882380D02*
X152655714Y-137882380D01*
X153227142Y-137882380D01*
X153370000Y-137930000D01*
X153441428Y-137977619D01*
X153512857Y-138072857D01*
X153512857Y-138215714D01*
X153441428Y-138310952D01*
X153370000Y-138358571D01*
X153227142Y-138406190D01*
X152655714Y-138406190D01*
X154155714Y-138882380D02*
X154155714Y-137882380D01*
X155727142Y-138882380D02*
X155227142Y-138406190D01*
X154870000Y-138882380D02*
X154870000Y-137882380D01*
X155441428Y-137882380D01*
X155584285Y-137930000D01*
X155655714Y-137977619D01*
X155727142Y-138072857D01*
X155727142Y-138215714D01*
X155655714Y-138310952D01*
X155584285Y-138358571D01*
X155441428Y-138406190D01*
X154870000Y-138406190D01*
X158012857Y-138358571D02*
X158227142Y-138406190D01*
X158298571Y-138453809D01*
X158370000Y-138549047D01*
X158370000Y-138691904D01*
X158298571Y-138787142D01*
X158227142Y-138834761D01*
X158084285Y-138882380D01*
X157512857Y-138882380D01*
X157512857Y-137882380D01*
X158012857Y-137882380D01*
X158155714Y-137930000D01*
X158227142Y-137977619D01*
X158298571Y-138072857D01*
X158298571Y-138168095D01*
X158227142Y-138263333D01*
X158155714Y-138310952D01*
X158012857Y-138358571D01*
X157512857Y-138358571D01*
X159655714Y-138882380D02*
X159655714Y-138358571D01*
X159584285Y-138263333D01*
X159441428Y-138215714D01*
X159155714Y-138215714D01*
X159012857Y-138263333D01*
X159655714Y-138834761D02*
X159512857Y-138882380D01*
X159155714Y-138882380D01*
X159012857Y-138834761D01*
X158941428Y-138739523D01*
X158941428Y-138644285D01*
X159012857Y-138549047D01*
X159155714Y-138501428D01*
X159512857Y-138501428D01*
X159655714Y-138453809D01*
X160298571Y-138834761D02*
X160441428Y-138882380D01*
X160727142Y-138882380D01*
X160870000Y-138834761D01*
X160941428Y-138739523D01*
X160941428Y-138691904D01*
X160870000Y-138596666D01*
X160727142Y-138549047D01*
X160512857Y-138549047D01*
X160370000Y-138501428D01*
X160298571Y-138406190D01*
X160298571Y-138358571D01*
X160370000Y-138263333D01*
X160512857Y-138215714D01*
X160727142Y-138215714D01*
X160870000Y-138263333D01*
X162155714Y-138834761D02*
X162012857Y-138882380D01*
X161727142Y-138882380D01*
X161584285Y-138834761D01*
X161512857Y-138739523D01*
X161512857Y-138358571D01*
X161584285Y-138263333D01*
X161727142Y-138215714D01*
X162012857Y-138215714D01*
X162155714Y-138263333D01*
X162227142Y-138358571D01*
X162227142Y-138453809D01*
X161512857Y-138549047D01*
X163512857Y-138882380D02*
X163512857Y-137882380D01*
X163512857Y-138834761D02*
X163370000Y-138882380D01*
X163084285Y-138882380D01*
X162941428Y-138834761D01*
X162870000Y-138787142D01*
X162798571Y-138691904D01*
X162798571Y-138406190D01*
X162870000Y-138310952D01*
X162941428Y-138263333D01*
X163084285Y-138215714D01*
X163370000Y-138215714D01*
X163512857Y-138263333D01*
X165298571Y-138596666D02*
X166012857Y-138596666D01*
X165155714Y-138882380D02*
X165655714Y-137882380D01*
X166155714Y-138882380D01*
X166870000Y-138882380D02*
X166727142Y-138834761D01*
X166655714Y-138739523D01*
X166655714Y-137882380D01*
X168084285Y-138882380D02*
X168084285Y-138358571D01*
X168012857Y-138263333D01*
X167870000Y-138215714D01*
X167584285Y-138215714D01*
X167441428Y-138263333D01*
X168084285Y-138834761D02*
X167941428Y-138882380D01*
X167584285Y-138882380D01*
X167441428Y-138834761D01*
X167370000Y-138739523D01*
X167370000Y-138644285D01*
X167441428Y-138549047D01*
X167584285Y-138501428D01*
X167941428Y-138501428D01*
X168084285Y-138453809D01*
X168798571Y-138882380D02*
X168798571Y-138215714D01*
X168798571Y-138406190D02*
X168870000Y-138310952D01*
X168941428Y-138263333D01*
X169084285Y-138215714D01*
X169227142Y-138215714D01*
X169727142Y-138882380D02*
X169727142Y-138215714D01*
X169727142Y-138310952D02*
X169798571Y-138263333D01*
X169941428Y-138215714D01*
X170155714Y-138215714D01*
X170298571Y-138263333D01*
X170370000Y-138358571D01*
X170370000Y-138882380D01*
X170370000Y-138358571D02*
X170441428Y-138263333D01*
X170584285Y-138215714D01*
X170798571Y-138215714D01*
X170941428Y-138263333D01*
X171012857Y-138358571D01*
X171012857Y-138882380D01*
X172798571Y-138834761D02*
X173012857Y-138882380D01*
X173370000Y-138882380D01*
X173512857Y-138834761D01*
X173584285Y-138787142D01*
X173655714Y-138691904D01*
X173655714Y-138596666D01*
X173584285Y-138501428D01*
X173512857Y-138453809D01*
X173370000Y-138406190D01*
X173084285Y-138358571D01*
X172941428Y-138310952D01*
X172870000Y-138263333D01*
X172798571Y-138168095D01*
X172798571Y-138072857D01*
X172870000Y-137977619D01*
X172941428Y-137930000D01*
X173084285Y-137882380D01*
X173441428Y-137882380D01*
X173655714Y-137930000D01*
X174155714Y-138215714D02*
X174512857Y-138882380D01*
X174870000Y-138215714D02*
X174512857Y-138882380D01*
X174370000Y-139120476D01*
X174298571Y-139168095D01*
X174155714Y-139215714D01*
X175370000Y-138834761D02*
X175512857Y-138882380D01*
X175798571Y-138882380D01*
X175941428Y-138834761D01*
X176012857Y-138739523D01*
X176012857Y-138691904D01*
X175941428Y-138596666D01*
X175798571Y-138549047D01*
X175584285Y-138549047D01*
X175441428Y-138501428D01*
X175370000Y-138406190D01*
X175370000Y-138358571D01*
X175441428Y-138263333D01*
X175584285Y-138215714D01*
X175798571Y-138215714D01*
X175941428Y-138263333D01*
X176441428Y-138215714D02*
X177012857Y-138215714D01*
X176655714Y-137882380D02*
X176655714Y-138739523D01*
X176727142Y-138834761D01*
X176870000Y-138882380D01*
X177012857Y-138882380D01*
X178084285Y-138834761D02*
X177941428Y-138882380D01*
X177655714Y-138882380D01*
X177512857Y-138834761D01*
X177441428Y-138739523D01*
X177441428Y-138358571D01*
X177512857Y-138263333D01*
X177655714Y-138215714D01*
X177941428Y-138215714D01*
X178084285Y-138263333D01*
X178155714Y-138358571D01*
X178155714Y-138453809D01*
X177441428Y-138549047D01*
X178798571Y-138882380D02*
X178798571Y-138215714D01*
X178798571Y-138310952D02*
X178870000Y-138263333D01*
X179012857Y-138215714D01*
X179227142Y-138215714D01*
X179370000Y-138263333D01*
X179441428Y-138358571D01*
X179441428Y-138882380D01*
X179441428Y-138358571D02*
X179512857Y-138263333D01*
X179655714Y-138215714D01*
X179870000Y-138215714D01*
X180012857Y-138263333D01*
X180084285Y-138358571D01*
X180084285Y-138882380D01*
D11*
%TO.P,VCC1,1*%
%TO.N,Net-(SW1-Pad1)*%
X140970000Y-127000000D03*
%TD*%
%TO.P,U1,8*%
%TO.N,/SW*%
%TA.AperFunction,SMDPad,CuDef*%
G36*
G01*
X164060000Y-121435000D02*
X164060000Y-121135000D01*
G75*
G02*
X164210000Y-120985000I150000J0D01*
G01*
X165860000Y-120985000D01*
G75*
G02*
X166010000Y-121135000I0J-150000D01*
G01*
X166010000Y-121435000D01*
G75*
G02*
X165860000Y-121585000I-150000J0D01*
G01*
X164210000Y-121585000D01*
G75*
G02*
X164060000Y-121435000I0J150000D01*
G01*
G37*
%TD.AperFunction*%
%TO.P,U1,7*%
%TO.N,Net-(C2-Pad1)*%
%TA.AperFunction,SMDPad,CuDef*%
G36*
G01*
X164060000Y-122705000D02*
X164060000Y-122405000D01*
G75*
G02*
X164210000Y-122255000I150000J0D01*
G01*
X165860000Y-122255000D01*
G75*
G02*
X166010000Y-122405000I0J-150000D01*
G01*
X166010000Y-122705000D01*
G75*
G02*
X165860000Y-122855000I-150000J0D01*
G01*
X164210000Y-122855000D01*
G75*
G02*
X164060000Y-122705000I0J150000D01*
G01*
G37*
%TD.AperFunction*%
%TO.P,U1,6*%
%TA.AperFunction,SMDPad,CuDef*%
G36*
G01*
X164060000Y-123975000D02*
X164060000Y-123675000D01*
G75*
G02*
X164210000Y-123525000I150000J0D01*
G01*
X165860000Y-123525000D01*
G75*
G02*
X166010000Y-123675000I0J-150000D01*
G01*
X166010000Y-123975000D01*
G75*
G02*
X165860000Y-124125000I-150000J0D01*
G01*
X164210000Y-124125000D01*
G75*
G02*
X164060000Y-123975000I0J150000D01*
G01*
G37*
%TD.AperFunction*%
%TO.P,U1,5*%
%TO.N,Net-(C1-Pad1)*%
%TA.AperFunction,SMDPad,CuDef*%
G36*
G01*
X164060000Y-125245000D02*
X164060000Y-124945000D01*
G75*
G02*
X164210000Y-124795000I150000J0D01*
G01*
X165860000Y-124795000D01*
G75*
G02*
X166010000Y-124945000I0J-150000D01*
G01*
X166010000Y-125245000D01*
G75*
G02*
X165860000Y-125395000I-150000J0D01*
G01*
X164210000Y-125395000D01*
G75*
G02*
X164060000Y-125245000I0J150000D01*
G01*
G37*
%TD.AperFunction*%
%TO.P,U1,4*%
%TO.N,/SW*%
%TA.AperFunction,SMDPad,CuDef*%
G36*
G01*
X159110000Y-125245000D02*
X159110000Y-124945000D01*
G75*
G02*
X159260000Y-124795000I150000J0D01*
G01*
X160910000Y-124795000D01*
G75*
G02*
X161060000Y-124945000I0J-150000D01*
G01*
X161060000Y-125245000D01*
G75*
G02*
X160910000Y-125395000I-150000J0D01*
G01*
X159260000Y-125395000D01*
G75*
G02*
X159110000Y-125245000I0J150000D01*
G01*
G37*
%TD.AperFunction*%
%TO.P,U1,3*%
%TO.N,/OUT*%
%TA.AperFunction,SMDPad,CuDef*%
G36*
G01*
X159110000Y-123975000D02*
X159110000Y-123675000D01*
G75*
G02*
X159260000Y-123525000I150000J0D01*
G01*
X160910000Y-123525000D01*
G75*
G02*
X161060000Y-123675000I0J-150000D01*
G01*
X161060000Y-123975000D01*
G75*
G02*
X160910000Y-124125000I-150000J0D01*
G01*
X159260000Y-124125000D01*
G75*
G02*
X159110000Y-123975000I0J150000D01*
G01*
G37*
%TD.AperFunction*%
%TO.P,U1,2*%
%TO.N,Net-(Q1-Pad1)*%
%TA.AperFunction,SMDPad,CuDef*%
G36*
G01*
X159110000Y-122705000D02*
X159110000Y-122405000D01*
G75*
G02*
X159260000Y-122255000I150000J0D01*
G01*
X160910000Y-122255000D01*
G75*
G02*
X161060000Y-122405000I0J-150000D01*
G01*
X161060000Y-122705000D01*
G75*
G02*
X160910000Y-122855000I-150000J0D01*
G01*
X159260000Y-122855000D01*
G75*
G02*
X159110000Y-122705000I0J150000D01*
G01*
G37*
%TD.AperFunction*%
%TO.P,U1,1*%
%TO.N,GNDREF*%
%TA.AperFunction,SMDPad,CuDef*%
G36*
G01*
X159110000Y-121435000D02*
X159110000Y-121135000D01*
G75*
G02*
X159260000Y-120985000I150000J0D01*
G01*
X160910000Y-120985000D01*
G75*
G02*
X161060000Y-121135000I0J-150000D01*
G01*
X161060000Y-121435000D01*
G75*
G02*
X160910000Y-121585000I-150000J0D01*
G01*
X159260000Y-121585000D01*
G75*
G02*
X159110000Y-121435000I0J150000D01*
G01*
G37*
%TD.AperFunction*%
%TD*%
D12*
%TO.P,SW1,2*%
%TO.N,/SW*%
X140970000Y-110490000D03*
D13*
%TO.P,SW1,1*%
%TO.N,Net-(SW1-Pad1)*%
X140970000Y-118110000D03*
%TD*%
%TO.P,R4,2*%
%TO.N,/OUT*%
%TA.AperFunction,SMDPad,CuDef*%
G36*
G01*
X160645001Y-129910000D02*
X159394999Y-129910000D01*
G75*
G02*
X159145000Y-129660001I0J249999D01*
G01*
X159145000Y-129034999D01*
G75*
G02*
X159394999Y-128785000I249999J0D01*
G01*
X160645001Y-128785000D01*
G75*
G02*
X160895000Y-129034999I0J-249999D01*
G01*
X160895000Y-129660001D01*
G75*
G02*
X160645001Y-129910000I-249999J0D01*
G01*
G37*
%TD.AperFunction*%
%TO.P,R4,1*%
%TO.N,Net-(BZ1-Pad1)*%
%TA.AperFunction,SMDPad,CuDef*%
G36*
G01*
X160645001Y-132835000D02*
X159394999Y-132835000D01*
G75*
G02*
X159145000Y-132585001I0J249999D01*
G01*
X159145000Y-131959999D01*
G75*
G02*
X159394999Y-131710000I249999J0D01*
G01*
X160645001Y-131710000D01*
G75*
G02*
X160895000Y-131959999I0J-249999D01*
G01*
X160895000Y-132585001D01*
G75*
G02*
X160645001Y-132835000I-249999J0D01*
G01*
G37*
%TD.AperFunction*%
%TD*%
%TO.P,R3,2*%
%TO.N,Net-(C2-Pad1)*%
%TA.AperFunction,SMDPad,CuDef*%
G36*
G01*
X176940002Y-116565001D02*
X175690000Y-116565001D01*
G75*
G02*
X175440001Y-116315002I0J249999D01*
G01*
X175440001Y-115690000D01*
G75*
G02*
X175690000Y-115440001I249999J0D01*
G01*
X176940002Y-115440001D01*
G75*
G02*
X177190001Y-115690000I0J-249999D01*
G01*
X177190001Y-116315002D01*
G75*
G02*
X176940002Y-116565001I-249999J0D01*
G01*
G37*
%TD.AperFunction*%
%TO.P,R3,1*%
%TO.N,/SW*%
%TA.AperFunction,SMDPad,CuDef*%
G36*
G01*
X176940002Y-119490001D02*
X175690000Y-119490001D01*
G75*
G02*
X175440001Y-119240002I0J249999D01*
G01*
X175440001Y-118615000D01*
G75*
G02*
X175690000Y-118365001I249999J0D01*
G01*
X176940002Y-118365001D01*
G75*
G02*
X177190001Y-118615000I0J-249999D01*
G01*
X177190001Y-119240002D01*
G75*
G02*
X176940002Y-119490001I-249999J0D01*
G01*
G37*
%TD.AperFunction*%
%TD*%
%TO.P,R2,2*%
%TO.N,Net-(Q1-Pad1)*%
%TA.AperFunction,SMDPad,CuDef*%
G36*
G01*
X158124999Y-116470000D02*
X159375001Y-116470000D01*
G75*
G02*
X159625000Y-116719999I0J-249999D01*
G01*
X159625000Y-117345001D01*
G75*
G02*
X159375001Y-117595000I-249999J0D01*
G01*
X158124999Y-117595000D01*
G75*
G02*
X157875000Y-117345001I0J249999D01*
G01*
X157875000Y-116719999D01*
G75*
G02*
X158124999Y-116470000I249999J0D01*
G01*
G37*
%TD.AperFunction*%
%TO.P,R2,1*%
%TO.N,/SW*%
%TA.AperFunction,SMDPad,CuDef*%
G36*
G01*
X158124999Y-113545000D02*
X159375001Y-113545000D01*
G75*
G02*
X159625000Y-113794999I0J-249999D01*
G01*
X159625000Y-114420001D01*
G75*
G02*
X159375001Y-114670000I-249999J0D01*
G01*
X158124999Y-114670000D01*
G75*
G02*
X157875000Y-114420001I0J249999D01*
G01*
X157875000Y-113794999D01*
G75*
G02*
X158124999Y-113545000I249999J0D01*
G01*
G37*
%TD.AperFunction*%
%TD*%
%TO.P,R1,2*%
%TO.N,Net-(H1-Pad2)*%
%TA.AperFunction,SMDPad,CuDef*%
G36*
G01*
X147945001Y-121020000D02*
X146694999Y-121020000D01*
G75*
G02*
X146445000Y-120770001I0J249999D01*
G01*
X146445000Y-120144999D01*
G75*
G02*
X146694999Y-119895000I249999J0D01*
G01*
X147945001Y-119895000D01*
G75*
G02*
X148195000Y-120144999I0J-249999D01*
G01*
X148195000Y-120770001D01*
G75*
G02*
X147945001Y-121020000I-249999J0D01*
G01*
G37*
%TD.AperFunction*%
%TO.P,R1,1*%
%TO.N,Net-(Q1-Pad2)*%
%TA.AperFunction,SMDPad,CuDef*%
G36*
G01*
X147945001Y-123945000D02*
X146694999Y-123945000D01*
G75*
G02*
X146445000Y-123695001I0J249999D01*
G01*
X146445000Y-123069999D01*
G75*
G02*
X146694999Y-122820000I249999J0D01*
G01*
X147945001Y-122820000D01*
G75*
G02*
X148195000Y-123069999I0J-249999D01*
G01*
X148195000Y-123695001D01*
G75*
G02*
X147945001Y-123945000I-249999J0D01*
G01*
G37*
%TD.AperFunction*%
%TD*%
D14*
%TO.P,Q1,1*%
%TO.N,Net-(Q1-Pad1)*%
X152400000Y-123190000D03*
D15*
%TO.P,Q1,3*%
%TO.N,GNDREF*%
X152400000Y-125730000D03*
%TO.P,Q1,2*%
%TO.N,Net-(Q1-Pad2)*%
X152400000Y-124460000D03*
%TD*%
D16*
%TO.P,H1,1*%
%TO.N,/SW*%
X151130000Y-111760000D03*
%TO.P,H1,2*%
%TO.N,Net-(H1-Pad2)*%
X148590000Y-114300000D03*
%TO.P,H1,3*%
%TO.N,GNDREF*%
X151130000Y-116840000D03*
%TD*%
D11*
%TO.P,GND1,1*%
%TO.N,GNDREF*%
X140970000Y-134620000D03*
%TD*%
%TO.P,C2,2*%
%TO.N,GNDREF*%
%TA.AperFunction,SMDPad,CuDef*%
G36*
G01*
X168190000Y-111980000D02*
X167090000Y-111980000D01*
G75*
G02*
X166840000Y-111730000I0J250000D01*
G01*
X166840000Y-108730000D01*
G75*
G02*
X167090000Y-108480000I250000J0D01*
G01*
X168190000Y-108480000D01*
G75*
G02*
X168440000Y-108730000I0J-250000D01*
G01*
X168440000Y-111730000D01*
G75*
G02*
X168190000Y-111980000I-250000J0D01*
G01*
G37*
%TD.AperFunction*%
%TO.P,C2,1*%
%TO.N,Net-(C2-Pad1)*%
%TA.AperFunction,SMDPad,CuDef*%
G36*
G01*
X168190000Y-117580000D02*
X167090000Y-117580000D01*
G75*
G02*
X166840000Y-117330000I0J250000D01*
G01*
X166840000Y-114330000D01*
G75*
G02*
X167090000Y-114080000I250000J0D01*
G01*
X168190000Y-114080000D01*
G75*
G02*
X168440000Y-114330000I0J-250000D01*
G01*
X168440000Y-117330000D01*
G75*
G02*
X168190000Y-117580000I-250000J0D01*
G01*
G37*
%TD.AperFunction*%
%TD*%
%TO.P,C1,2*%
%TO.N,GNDREF*%
%TA.AperFunction,SMDPad,CuDef*%
G36*
G01*
X150430000Y-132800000D02*
X150430000Y-133900000D01*
G75*
G02*
X150180000Y-134150000I-250000J0D01*
G01*
X147680000Y-134150000D01*
G75*
G02*
X147430000Y-133900000I0J250000D01*
G01*
X147430000Y-132800000D01*
G75*
G02*
X147680000Y-132550000I250000J0D01*
G01*
X150180000Y-132550000D01*
G75*
G02*
X150430000Y-132800000I0J-250000D01*
G01*
G37*
%TD.AperFunction*%
%TO.P,C1,1*%
%TO.N,Net-(C1-Pad1)*%
%TA.AperFunction,SMDPad,CuDef*%
G36*
G01*
X154830000Y-132800000D02*
X154830000Y-133900000D01*
G75*
G02*
X154580000Y-134150000I-250000J0D01*
G01*
X152080000Y-134150000D01*
G75*
G02*
X151830000Y-133900000I0J250000D01*
G01*
X151830000Y-132800000D01*
G75*
G02*
X152080000Y-132550000I250000J0D01*
G01*
X154580000Y-132550000D01*
G75*
G02*
X154830000Y-132800000I0J-250000D01*
G01*
G37*
%TD.AperFunction*%
%TD*%
D17*
%TO.P,BZ1,2*%
%TO.N,GNDREF*%
X173990000Y-125750000D03*
D18*
%TO.P,BZ1,1*%
%TO.N,Net-(BZ1-Pad1)*%
X173990000Y-133350000D03*
%TD*%
D19*
%TO.N,GNDREF*%
X151130000Y-116840000D02*
X151130000Y-114300000D01*
X146050000Y-125730000D02*
X152400000Y-125730000D01*
X144780000Y-127000000D02*
X146050000Y-125730000D01*
X144780000Y-111760000D02*
X144780000Y-127000000D01*
X148590000Y-111760000D02*
X144780000Y-111760000D01*
X151130000Y-114300000D02*
X148590000Y-111760000D01*
X144780000Y-127000000D02*
X144780000Y-130810000D01*
X147320000Y-133350000D02*
X148930000Y-133350000D01*
X144780000Y-130810000D02*
X147320000Y-133350000D01*
X144780000Y-130810000D02*
X142240000Y-133350000D01*
X142240000Y-133350000D02*
X140970000Y-134620000D01*
X140970000Y-134620000D02*
X140970000Y-135890000D01*
X178810000Y-110230000D02*
X167640000Y-110230000D01*
X180340000Y-111760000D02*
X178810000Y-110230000D01*
X180340000Y-135890000D02*
X180340000Y-123190000D01*
X180340000Y-123190000D02*
X180340000Y-111760000D01*
X179070000Y-137160000D02*
X180340000Y-135890000D01*
X142240000Y-137160000D02*
X179070000Y-137160000D01*
X140970000Y-135890000D02*
X142240000Y-137160000D01*
X173990000Y-125750000D02*
X173990000Y-125730000D01*
X176530000Y-123190000D02*
X180340000Y-123190000D01*
X173990000Y-125730000D02*
X176530000Y-123190000D01*
X151130000Y-116840000D02*
X152400000Y-118110000D01*
X159385000Y-121285000D02*
X160085000Y-121285000D01*
X157480000Y-119380000D02*
X159385000Y-121285000D01*
X152400000Y-119380000D02*
X157480000Y-119380000D01*
X152400000Y-118110000D02*
X152400000Y-119380000D01*
%TO.N,Net-(BZ1-Pad1)*%
X160020000Y-132272500D02*
X168717500Y-132272500D01*
X169795000Y-133350000D02*
X173990000Y-133350000D01*
X168717500Y-132272500D02*
X169795000Y-133350000D01*
%TO.N,Net-(C1-Pad1)*%
X165035000Y-125095000D02*
X165035000Y-126935000D01*
X153670000Y-133350000D02*
X153330000Y-133350000D01*
X156210000Y-135890000D02*
X153670000Y-133350000D01*
X177800000Y-135890000D02*
X156210000Y-135890000D01*
X177800000Y-134620000D02*
X177800000Y-135890000D01*
X177800000Y-133350000D02*
X177800000Y-134620000D01*
X172720000Y-128270000D02*
X177800000Y-133350000D01*
X166370000Y-128270000D02*
X172720000Y-128270000D01*
X165035000Y-126935000D02*
X166370000Y-128270000D01*
%TO.N,Net-(C2-Pad1)*%
X167640000Y-115830000D02*
X167640000Y-115570000D01*
X174612500Y-114300000D02*
X176315001Y-116002501D01*
X168910000Y-114300000D02*
X173990000Y-114300000D01*
X173990000Y-114300000D02*
X174612500Y-114300000D01*
X167640000Y-115570000D02*
X168910000Y-114300000D01*
X173990000Y-114300000D02*
X175260000Y-114300000D01*
X165670000Y-121920000D02*
X165035000Y-122555000D01*
X177800000Y-121920000D02*
X167640000Y-121920000D01*
X167640000Y-121920000D02*
X165670000Y-121920000D01*
X179070000Y-120650000D02*
X177800000Y-121920000D01*
X179070000Y-113030000D02*
X179070000Y-120650000D01*
X176530000Y-113030000D02*
X179070000Y-113030000D01*
X175260000Y-114300000D02*
X176530000Y-113030000D01*
X167640000Y-121920000D02*
X167640000Y-123190000D01*
X167005000Y-123825000D02*
X165035000Y-123825000D01*
X167640000Y-123190000D02*
X167005000Y-123825000D01*
%TO.N,/SW*%
X140970000Y-110490000D02*
X142240000Y-109220000D01*
X151130000Y-110490000D02*
X151130000Y-111760000D01*
X149860000Y-109220000D02*
X151130000Y-110490000D01*
X142240000Y-109220000D02*
X149860000Y-109220000D01*
X151130000Y-111760000D02*
X152400000Y-113030000D01*
X152400000Y-113030000D02*
X157672500Y-113030000D01*
X157672500Y-113030000D02*
X158750000Y-114107500D01*
X160085000Y-125095000D02*
X161925000Y-125095000D01*
X161925000Y-125095000D02*
X162560000Y-124460000D01*
X162560000Y-124460000D02*
X162560000Y-121920000D01*
X163195000Y-121285000D02*
X165035000Y-121285000D01*
X162560000Y-121920000D02*
X163195000Y-121285000D01*
X158750000Y-114107500D02*
X161097500Y-114107500D01*
X162560000Y-115570000D02*
X163830000Y-119380000D01*
X161097500Y-114107500D02*
X162560000Y-115570000D01*
X163830000Y-119380000D02*
X168910000Y-119380000D01*
X168910000Y-119380000D02*
X177132502Y-119380000D01*
X177132502Y-119380000D02*
X176315001Y-118927501D01*
X165035000Y-121285000D02*
X167005000Y-121285000D01*
X167005000Y-121285000D02*
X168910000Y-119380000D01*
%TO.N,Net-(H1-Pad2)*%
X148590000Y-114300000D02*
X147320000Y-114300000D01*
X146050000Y-119187500D02*
X147320000Y-120457500D01*
X146050000Y-115570000D02*
X146050000Y-119187500D01*
X147320000Y-114300000D02*
X146050000Y-115570000D01*
%TO.N,Net-(Q1-Pad1)*%
X152400000Y-123190000D02*
X153670000Y-121920000D01*
X159385000Y-122555000D02*
X160085000Y-122555000D01*
X158750000Y-121920000D02*
X159385000Y-122555000D01*
X157480000Y-121920000D02*
X158750000Y-121920000D01*
X153670000Y-121920000D02*
X157480000Y-121920000D01*
X158750000Y-117032500D02*
X160212500Y-117032500D01*
X160655000Y-122555000D02*
X160085000Y-122555000D01*
X162560000Y-120650000D02*
X160655000Y-122555000D01*
X162560000Y-119380000D02*
X162560000Y-120650000D01*
X160212500Y-117032500D02*
X162560000Y-119380000D01*
%TO.N,Net-(Q1-Pad2)*%
X147320000Y-123382500D02*
X148782500Y-123382500D01*
X149860000Y-124460000D02*
X152400000Y-124460000D01*
X148782500Y-123382500D02*
X149860000Y-124460000D01*
%TO.N,/OUT*%
X160085000Y-123825000D02*
X158115000Y-123825000D01*
X157480000Y-126807500D02*
X160020000Y-129347500D01*
X157480000Y-124460000D02*
X157480000Y-126807500D01*
X158115000Y-123825000D02*
X157480000Y-124460000D01*
%TO.N,Net-(SW1-Pad1)*%
X140970000Y-118110000D02*
X139700000Y-119380000D01*
X139700000Y-125730000D02*
X140970000Y-127000000D01*
X139700000Y-119380000D02*
X139700000Y-120650000D01*
X139700000Y-120650000D02*
X139700000Y-125730000D01*
%TD*%
M02*
